<mxfile host="app.diagrams.net" modified="2022-01-06T18:36:31.832Z" agent="5.0 (Windows NT 6.3; Win64; x64) AppleWebKit/537.36 (KHTML, like Gecko) Chrome/96.0.4664.110 Safari/537.36" etag="sJm6RbKZDukLnrmE9Ijo" version="16.2.1" type="github">
  <diagram id="C5RBs43oDa-KdzZeNtuy" name="Page-1">
    <mxGraphModel dx="868" dy="1619" grid="1" gridSize="10" guides="1" tooltips="1" connect="1" arrows="1" fold="1" page="1" pageScale="1" pageWidth="827" pageHeight="1169" math="0" shadow="0">
      <root>
        <mxCell id="WIyWlLk6GJQsqaUBKTNV-0" />
        <mxCell id="WIyWlLk6GJQsqaUBKTNV-1" parent="WIyWlLk6GJQsqaUBKTNV-0" />
        <mxCell id="Xpy7azgNWkUGN70adYCI-53" style="edgeStyle=none;rounded=0;orthogonalLoop=1;jettySize=auto;html=1;exitX=0.5;exitY=1;exitDx=0;exitDy=0;entryX=0.5;entryY=1;entryDx=0;entryDy=0;fontFamily=Times New Roman;fontSize=21;" parent="WIyWlLk6GJQsqaUBKTNV-1" source="Xpy7azgNWkUGN70adYCI-1" target="Xpy7azgNWkUGN70adYCI-5" edge="1">
          <mxGeometry relative="1" as="geometry" />
        </mxCell>
        <mxCell id="Xpy7azgNWkUGN70adYCI-1" value="&lt;font style=&quot;vertical-align: inherit&quot;&gt;&lt;font style=&quot;vertical-align: inherit&quot;&gt;&lt;font size=&quot;3&quot;&gt;INICIO&lt;/font&gt;&lt;br&gt;&lt;/font&gt;&lt;/font&gt;" style="ellipse;whiteSpace=wrap;html=1;" parent="WIyWlLk6GJQsqaUBKTNV-1" vertex="1">
          <mxGeometry x="29" y="-1150" width="194" height="93" as="geometry" />
        </mxCell>
        <mxCell id="Xpy7azgNWkUGN70adYCI-9" style="edgeStyle=none;rounded=0;orthogonalLoop=1;jettySize=auto;html=1;exitX=0.5;exitY=1;exitDx=0;exitDy=0;fontFamily=Times New Roman;fontSize=18;" parent="WIyWlLk6GJQsqaUBKTNV-1" source="Xpy7azgNWkUGN70adYCI-5" edge="1">
          <mxGeometry relative="1" as="geometry">
            <mxPoint x="126.17647058823536" y="-843" as="targetPoint" />
          </mxGeometry>
        </mxCell>
        <mxCell id="Xpy7azgNWkUGN70adYCI-5" value="&lt;font style=&quot;vertical-align: inherit&quot;&gt;&lt;font style=&quot;vertical-align: inherit&quot;&gt;INFORME UMA DATA&lt;/font&gt;&lt;/font&gt;" style="shape=step;perimeter=stepPerimeter;whiteSpace=wrap;html=1;fixedSize=1;fontFamily=Times New Roman;fontSize=18;gradientColor=#ffffff;direction=west;" parent="WIyWlLk6GJQsqaUBKTNV-1" vertex="1">
          <mxGeometry x="46" y="-983" width="160" height="80" as="geometry" />
        </mxCell>
        <mxCell id="Xpy7azgNWkUGN70adYCI-15" style="edgeStyle=none;rounded=0;orthogonalLoop=1;jettySize=auto;html=1;exitX=0.5;exitY=1;exitDx=0;exitDy=0;fontFamily=Times New Roman;fontSize=18;" parent="WIyWlLk6GJQsqaUBKTNV-1" source="Xpy7azgNWkUGN70adYCI-14" edge="1">
          <mxGeometry relative="1" as="geometry">
            <mxPoint x="125.71428571428578" y="-730" as="targetPoint" />
          </mxGeometry>
        </mxCell>
        <mxCell id="Xpy7azgNWkUGN70adYCI-14" value="&lt;font style=&quot;font-size: 21px&quot;&gt;08/05/2021&lt;/font&gt;" style="html=1;strokeWidth=2;shape=manualInput;whiteSpace=wrap;rounded=1;size=26;arcSize=11;fontFamily=Times New Roman;fontSize=18;gradientColor=#ffffff;" parent="WIyWlLk6GJQsqaUBKTNV-1" vertex="1">
          <mxGeometry x="44" y="-840" width="164" height="80" as="geometry" />
        </mxCell>
        <mxCell id="Xpy7azgNWkUGN70adYCI-17" style="edgeStyle=none;rounded=0;orthogonalLoop=1;jettySize=auto;html=1;exitX=1;exitY=0.5;exitDx=0;exitDy=0;exitPerimeter=0;fontFamily=Times New Roman;fontSize=18;" parent="WIyWlLk6GJQsqaUBKTNV-1" source="Xpy7azgNWkUGN70adYCI-16" edge="1">
          <mxGeometry relative="1" as="geometry">
            <mxPoint x="320" y="-614.8571428571429" as="targetPoint" />
          </mxGeometry>
        </mxCell>
        <mxCell id="Xpy7azgNWkUGN70adYCI-22" style="edgeStyle=none;rounded=0;orthogonalLoop=1;jettySize=auto;html=1;exitX=0.5;exitY=1;exitDx=0;exitDy=0;exitPerimeter=0;fontFamily=Times New Roman;fontSize=18;" parent="WIyWlLk6GJQsqaUBKTNV-1" source="Xpy7azgNWkUGN70adYCI-16" edge="1">
          <mxGeometry relative="1" as="geometry">
            <mxPoint x="126" y="-450" as="targetPoint" />
          </mxGeometry>
        </mxCell>
        <mxCell id="Xpy7azgNWkUGN70adYCI-16" value="DATA POSTERIOR&amp;nbsp;&amp;nbsp;&lt;br&gt;DO EVENTO?" style="strokeWidth=2;html=1;shape=mxgraph.flowchart.decision;whiteSpace=wrap;fontFamily=Times New Roman;fontSize=18;gradientColor=#ffffff;" parent="WIyWlLk6GJQsqaUBKTNV-1" vertex="1">
          <mxGeometry x="36" y="-710" width="180" height="190" as="geometry" />
        </mxCell>
        <mxCell id="Xpy7azgNWkUGN70adYCI-18" value="NÃO" style="text;html=1;align=center;verticalAlign=middle;resizable=0;points=[];autosize=1;strokeColor=none;fillColor=none;fontSize=18;fontFamily=Times New Roman;" parent="WIyWlLk6GJQsqaUBKTNV-1" vertex="1">
          <mxGeometry x="235" y="-665" width="50" height="30" as="geometry" />
        </mxCell>
        <mxCell id="Xpy7azgNWkUGN70adYCI-19" value="DATA INDISPONIVEL!&lt;br&gt;TENTE UMA NOVA DATA!" style="shape=step;perimeter=stepPerimeter;whiteSpace=wrap;html=1;fixedSize=1;fontFamily=Times New Roman;fontSize=18;gradientColor=#ffffff;gradientDirection=south;direction=west;" parent="WIyWlLk6GJQsqaUBKTNV-1" vertex="1">
          <mxGeometry x="330" y="-655" width="210" height="85" as="geometry" />
        </mxCell>
        <mxCell id="Xpy7azgNWkUGN70adYCI-21" value="" style="edgeStyle=elbowEdgeStyle;elbow=horizontal;endArrow=classic;html=1;rounded=0;fontFamily=Times New Roman;fontSize=18;" parent="WIyWlLk6GJQsqaUBKTNV-1" edge="1">
          <mxGeometry width="50" height="50" relative="1" as="geometry">
            <mxPoint x="400" y="-680" as="sourcePoint" />
            <mxPoint x="230" y="-960" as="targetPoint" />
            <Array as="points">
              <mxPoint x="400" y="-760" />
            </Array>
          </mxGeometry>
        </mxCell>
        <mxCell id="Xpy7azgNWkUGN70adYCI-23" value="SIM" style="text;html=1;align=center;verticalAlign=middle;resizable=0;points=[];autosize=1;strokeColor=none;fillColor=none;fontSize=18;fontFamily=Times New Roman;" parent="WIyWlLk6GJQsqaUBKTNV-1" vertex="1">
          <mxGeometry x="60" y="-495" width="50" height="30" as="geometry" />
        </mxCell>
        <mxCell id="Xpy7azgNWkUGN70adYCI-25" style="edgeStyle=none;rounded=0;orthogonalLoop=1;jettySize=auto;html=1;exitX=0.5;exitY=0;exitDx=0;exitDy=0;fontFamily=Times New Roman;fontSize=18;" parent="WIyWlLk6GJQsqaUBKTNV-1" source="Xpy7azgNWkUGN70adYCI-24" edge="1">
          <mxGeometry relative="1" as="geometry">
            <mxPoint x="125.71428571428578" y="-280" as="targetPoint" />
          </mxGeometry>
        </mxCell>
        <mxCell id="Xpy7azgNWkUGN70adYCI-24" value="INFORME SUA IDADE!" style="shape=step;perimeter=stepPerimeter;whiteSpace=wrap;html=1;fixedSize=1;fontFamily=Times New Roman;fontSize=18;gradientColor=#ffffff;gradientDirection=south;direction=west;" parent="WIyWlLk6GJQsqaUBKTNV-1" vertex="1">
          <mxGeometry x="10.5" y="-440" width="231" height="90" as="geometry" />
        </mxCell>
        <mxCell id="Xpy7azgNWkUGN70adYCI-27" style="edgeStyle=none;rounded=0;orthogonalLoop=1;jettySize=auto;html=1;exitX=0.5;exitY=1;exitDx=0;exitDy=0;fontFamily=Times New Roman;fontSize=21;" parent="WIyWlLk6GJQsqaUBKTNV-1" source="Xpy7azgNWkUGN70adYCI-26" edge="1">
          <mxGeometry relative="1" as="geometry">
            <mxPoint x="125.71428571428578" y="-160" as="targetPoint" />
          </mxGeometry>
        </mxCell>
        <mxCell id="Xpy7azgNWkUGN70adYCI-26" value="&lt;font style=&quot;font-size: 21px&quot;&gt;23&lt;/font&gt;" style="html=1;strokeWidth=2;shape=manualInput;whiteSpace=wrap;rounded=1;size=26;arcSize=11;fontFamily=Times New Roman;fontSize=18;gradientColor=#ffffff;" parent="WIyWlLk6GJQsqaUBKTNV-1" vertex="1">
          <mxGeometry x="44" y="-290" width="164" height="70" as="geometry" />
        </mxCell>
        <mxCell id="Xpy7azgNWkUGN70adYCI-30" style="edgeStyle=none;rounded=0;orthogonalLoop=1;jettySize=auto;html=1;exitX=1;exitY=0.5;exitDx=0;exitDy=0;exitPerimeter=0;fontFamily=Times New Roman;fontSize=21;" parent="WIyWlLk6GJQsqaUBKTNV-1" source="Xpy7azgNWkUGN70adYCI-28" edge="1">
          <mxGeometry relative="1" as="geometry">
            <mxPoint x="350" y="-75" as="targetPoint" />
          </mxGeometry>
        </mxCell>
        <mxCell id="Xpy7azgNWkUGN70adYCI-36" style="edgeStyle=none;rounded=0;orthogonalLoop=1;jettySize=auto;html=1;exitX=0.5;exitY=1;exitDx=0;exitDy=0;exitPerimeter=0;fontFamily=Times New Roman;fontSize=21;" parent="WIyWlLk6GJQsqaUBKTNV-1" source="Xpy7azgNWkUGN70adYCI-28" edge="1">
          <mxGeometry relative="1" as="geometry">
            <mxPoint x="125.71428571428578" y="50" as="targetPoint" />
          </mxGeometry>
        </mxCell>
        <mxCell id="Xpy7azgNWkUGN70adYCI-28" value="&amp;gt;= 18?" style="strokeWidth=2;html=1;shape=mxgraph.flowchart.decision;whiteSpace=wrap;fontFamily=Times New Roman;fontSize=21;gradientColor=#ffffff;gradientDirection=south;" parent="WIyWlLk6GJQsqaUBKTNV-1" vertex="1">
          <mxGeometry x="54" y="-140" width="144" height="130" as="geometry" />
        </mxCell>
        <mxCell id="Xpy7azgNWkUGN70adYCI-31" value="NÃO" style="text;html=1;align=center;verticalAlign=middle;resizable=0;points=[];autosize=1;strokeColor=none;fillColor=none;fontSize=21;fontFamily=Times New Roman;" parent="WIyWlLk6GJQsqaUBKTNV-1" vertex="1">
          <mxGeometry x="50" y="-25" width="60" height="30" as="geometry" />
        </mxCell>
        <mxCell id="Xpy7azgNWkUGN70adYCI-32" value="IDADE INVALIDA!&lt;br&gt;TENTE NOVAMENTE!" style="shape=step;perimeter=stepPerimeter;whiteSpace=wrap;html=1;fixedSize=1;fontFamily=Times New Roman;fontSize=18;gradientColor=#ffffff;gradientDirection=south;direction=west;" parent="WIyWlLk6GJQsqaUBKTNV-1" vertex="1">
          <mxGeometry x="21" y="60" width="210" height="70" as="geometry" />
        </mxCell>
        <mxCell id="Xpy7azgNWkUGN70adYCI-34" value="" style="edgeStyle=elbowEdgeStyle;elbow=horizontal;endArrow=classic;html=1;rounded=0;fontFamily=Times New Roman;fontSize=18;" parent="WIyWlLk6GJQsqaUBKTNV-1" edge="1">
          <mxGeometry width="50" height="50" relative="1" as="geometry">
            <mxPoint x="230" y="90" as="sourcePoint" />
            <mxPoint x="240" y="-400" as="targetPoint" />
            <Array as="points">
              <mxPoint x="310" y="-200" />
            </Array>
          </mxGeometry>
        </mxCell>
        <mxCell id="Xpy7azgNWkUGN70adYCI-35" value="SIM" style="text;html=1;align=center;verticalAlign=middle;resizable=0;points=[];autosize=1;strokeColor=none;fillColor=none;fontSize=21;fontFamily=Times New Roman;" parent="WIyWlLk6GJQsqaUBKTNV-1" vertex="1">
          <mxGeometry x="235" y="-115" width="50" height="30" as="geometry" />
        </mxCell>
        <mxCell id="Xpy7azgNWkUGN70adYCI-38" style="edgeStyle=none;rounded=0;orthogonalLoop=1;jettySize=auto;html=1;exitX=0;exitY=0.5;exitDx=0;exitDy=0;fontFamily=Times New Roman;fontSize=21;" parent="WIyWlLk6GJQsqaUBKTNV-1" source="Xpy7azgNWkUGN70adYCI-37" edge="1">
          <mxGeometry relative="1" as="geometry">
            <mxPoint x="720.0000000000002" y="-74.85714285714266" as="targetPoint" />
          </mxGeometry>
        </mxCell>
        <mxCell id="Xpy7azgNWkUGN70adYCI-37" value="IDADE VALIDA!&lt;br&gt;CADASTRE-SE NA LISTA DO EVENTO:" style="shape=step;perimeter=stepPerimeter;whiteSpace=wrap;html=1;fixedSize=1;fontFamily=Times New Roman;fontSize=18;gradientColor=#ffffff;gradientDirection=south;direction=west;" parent="WIyWlLk6GJQsqaUBKTNV-1" vertex="1">
          <mxGeometry x="370" y="-120" width="290" height="90" as="geometry" />
        </mxCell>
        <mxCell id="Xpy7azgNWkUGN70adYCI-40" style="edgeStyle=none;rounded=0;orthogonalLoop=1;jettySize=auto;html=1;exitX=0.5;exitY=0;exitDx=0;exitDy=0;fontFamily=Times New Roman;fontSize=21;" parent="WIyWlLk6GJQsqaUBKTNV-1" source="Xpy7azgNWkUGN70adYCI-39" edge="1">
          <mxGeometry relative="1" as="geometry">
            <mxPoint x="821.4285714285716" y="-180" as="targetPoint" />
          </mxGeometry>
        </mxCell>
        <mxCell id="Xpy7azgNWkUGN70adYCI-39" value="&lt;span style=&quot;font-size: 21px&quot;&gt;EDUARDA&lt;/span&gt;" style="html=1;strokeWidth=2;shape=manualInput;whiteSpace=wrap;rounded=1;size=26;arcSize=11;fontFamily=Times New Roman;fontSize=18;gradientColor=#ffffff;" parent="WIyWlLk6GJQsqaUBKTNV-1" vertex="1">
          <mxGeometry x="740" y="-110" width="164" height="70" as="geometry" />
        </mxCell>
        <mxCell id="Xpy7azgNWkUGN70adYCI-43" style="edgeStyle=none;rounded=0;orthogonalLoop=1;jettySize=auto;html=1;exitX=0.5;exitY=0;exitDx=0;exitDy=0;exitPerimeter=0;fontFamily=Times New Roman;fontSize=21;" parent="WIyWlLk6GJQsqaUBKTNV-1" source="Xpy7azgNWkUGN70adYCI-42" edge="1">
          <mxGeometry relative="1" as="geometry">
            <mxPoint x="821" y="-510" as="targetPoint" />
          </mxGeometry>
        </mxCell>
        <mxCell id="Xpy7azgNWkUGN70adYCI-44" style="edgeStyle=none;rounded=0;orthogonalLoop=1;jettySize=auto;html=1;exitX=1;exitY=0.5;exitDx=0;exitDy=0;exitPerimeter=0;fontFamily=Times New Roman;fontSize=21;" parent="WIyWlLk6GJQsqaUBKTNV-1" source="Xpy7azgNWkUGN70adYCI-42" edge="1">
          <mxGeometry relative="1" as="geometry">
            <mxPoint x="980" y="-304.85714285714266" as="targetPoint" />
          </mxGeometry>
        </mxCell>
        <mxCell id="Xpy7azgNWkUGN70adYCI-42" value="QUANTIDADE DE PARTICIPANTES &amp;lt; QUE 100?" style="strokeWidth=2;html=1;shape=mxgraph.flowchart.decision;whiteSpace=wrap;fontFamily=Times New Roman;fontSize=18;gradientColor=#ffffff;" parent="WIyWlLk6GJQsqaUBKTNV-1" vertex="1">
          <mxGeometry x="721" y="-410" width="202" height="210" as="geometry" />
        </mxCell>
        <mxCell id="Xpy7azgNWkUGN70adYCI-45" value="NÃO" style="text;html=1;align=center;verticalAlign=middle;resizable=0;points=[];autosize=1;strokeColor=none;fillColor=none;fontSize=21;fontFamily=Times New Roman;" parent="WIyWlLk6GJQsqaUBKTNV-1" vertex="1">
          <mxGeometry x="923" y="-335" width="60" height="30" as="geometry" />
        </mxCell>
        <mxCell id="Xpy7azgNWkUGN70adYCI-46" value="&lt;br&gt;LISTA CHEIA, TENTE NOVAMENTE MAIS TARDE!" style="shape=step;perimeter=stepPerimeter;whiteSpace=wrap;html=1;fixedSize=1;fontFamily=Times New Roman;fontSize=18;gradientColor=#ffffff;gradientDirection=south;direction=west;" parent="WIyWlLk6GJQsqaUBKTNV-1" vertex="1">
          <mxGeometry x="1000" y="-347.5" width="210" height="85" as="geometry" />
        </mxCell>
        <mxCell id="Xpy7azgNWkUGN70adYCI-47" value="SIM" style="text;html=1;align=center;verticalAlign=middle;resizable=0;points=[];autosize=1;strokeColor=none;fillColor=none;fontSize=21;fontFamily=Times New Roman;" parent="WIyWlLk6GJQsqaUBKTNV-1" vertex="1">
          <mxGeometry x="840" y="-470" width="50" height="30" as="geometry" />
        </mxCell>
        <mxCell id="Xpy7azgNWkUGN70adYCI-49" style="edgeStyle=none;rounded=0;orthogonalLoop=1;jettySize=auto;html=1;exitX=0.5;exitY=0;exitDx=0;exitDy=0;fontFamily=Times New Roman;fontSize=21;" parent="WIyWlLk6GJQsqaUBKTNV-1" source="Xpy7azgNWkUGN70adYCI-48" edge="1">
          <mxGeometry relative="1" as="geometry">
            <mxPoint x="824.2857142857142" y="-690" as="targetPoint" />
          </mxGeometry>
        </mxCell>
        <mxCell id="Xpy7azgNWkUGN70adYCI-48" value="PROCESSANDO DADOS, AGUARDE!" style="rounded=0;whiteSpace=wrap;html=1;fontFamily=Times New Roman;fontSize=21;gradientColor=#ffffff;gradientDirection=south;" parent="WIyWlLk6GJQsqaUBKTNV-1" vertex="1">
          <mxGeometry x="725" y="-610" width="198" height="90" as="geometry" />
        </mxCell>
        <mxCell id="Xpy7azgNWkUGN70adYCI-60" style="edgeStyle=none;rounded=0;orthogonalLoop=1;jettySize=auto;html=1;exitX=0.5;exitY=1;exitDx=0;exitDy=0;fontFamily=Times New Roman;fontSize=21;" parent="WIyWlLk6GJQsqaUBKTNV-1" source="Xpy7azgNWkUGN70adYCI-50" edge="1">
          <mxGeometry relative="1" as="geometry">
            <mxPoint x="822" y="-1040" as="targetPoint" />
          </mxGeometry>
        </mxCell>
        <mxCell id="Xpy7azgNWkUGN70adYCI-50" value="CADASTRO CONCLUIDO COM SUCESSO!" style="shape=step;perimeter=stepPerimeter;whiteSpace=wrap;html=1;fixedSize=1;fontFamily=Times New Roman;fontSize=18;gradientColor=#ffffff;gradientDirection=south;direction=west;" parent="WIyWlLk6GJQsqaUBKTNV-1" vertex="1">
          <mxGeometry x="700.5" y="-820" width="243" height="100" as="geometry" />
        </mxCell>
        <mxCell id="Xpy7azgNWkUGN70adYCI-54" value="&lt;font style=&quot;vertical-align: inherit&quot;&gt;&lt;font style=&quot;vertical-align: inherit&quot;&gt;&lt;font size=&quot;3&quot;&gt;FIM&lt;/font&gt;&lt;br&gt;&lt;/font&gt;&lt;/font&gt;" style="ellipse;whiteSpace=wrap;html=1;" parent="WIyWlLk6GJQsqaUBKTNV-1" vertex="1">
          <mxGeometry x="727" y="-1150" width="194" height="93" as="geometry" />
        </mxCell>
        <mxCell id="Xpy7azgNWkUGN70adYCI-56" value="" style="edgeStyle=elbowEdgeStyle;elbow=horizontal;endArrow=classic;html=1;rounded=0;fontFamily=Times New Roman;fontSize=18;" parent="WIyWlLk6GJQsqaUBKTNV-1" edge="1">
          <mxGeometry width="50" height="50" relative="1" as="geometry">
            <mxPoint x="1104" y="-360" as="sourcePoint" />
            <mxPoint x="943.5" y="-1110" as="targetPoint" />
            <Array as="points">
              <mxPoint x="1103.5" y="-1270" />
            </Array>
          </mxGeometry>
        </mxCell>
      </root>
    </mxGraphModel>
  </diagram>
</mxfile>
